<?xml version="1.0"?>
<svg xmlns="http://www.w3.org/2000/svg" xmlns:xlink="http://www.w3.org/1999/xlink"  version="1.1" width="512" height="512" x="0" y="0" viewBox="0 0 682.66669 682" style="enable-background:new 0 0 512 512" xml:space="preserve" class=""><g><path xmlns="http://www.w3.org/2000/svg" d="m277.523438 523.082031h91.75c6.941406 0 12.566406-5.625 12.566406-12.570312 0-6.9375-5.625-12.566407-12.566406-12.566407h-91.75c-6.941407 0-12.566407 5.628907-12.566407 12.566407 0 6.945312 5.625 12.570312 12.566407 12.570312zm0 0" fill="#7231ad" data-original="#000000" style="" class=""/><path xmlns="http://www.w3.org/2000/svg" d="m640 176.078125v-140.417969c0-20.792968-16.914062-37.707031-37.703125-37.707031h-16.597656c-6.945313 0-12.570313 5.625-12.570313 12.570313 0 6.941406 5.625 12.566406 12.570313 12.566406h16.597656c6.925781 0 12.566406 5.640625 12.566406 12.570312v140.417969c0 6.929687-5.640625 12.570313-12.566406 12.570313h-141.71875c-3.644531 0-7.109375 1.578124-9.5 4.332031l-30.53125 35.203125-34.339844-35.683594c-2.371093-2.460938-5.640625-3.851562-9.058593-3.851562h-34.453126c-6.933593 0-12.570312-5.640626-12.570312-12.570313v-35.339844c.269531-1.03125.429688-2.101562.429688-3.214843 0-1.113282-.160157-2.1875-.429688-3.210938v-48.652344c.269531-1.027344.429688-2.101562.429688-3.214844 0-1.105468-.160157-2.179687-.429688-3.207031v-43.578125c0-6.929687 5.636719-12.570312 12.570312-12.570312h143.082032c6.941406 0 12.566406-5.625 12.566406-12.566406 0-6.945313-5.625-12.570313-12.566406-12.570313h-143.082032c-20.789062 0-37.703124 16.914063-37.703124 37.707031v34.222656h-236.179688c-20.789062 0-37.703125 16.914063-37.703125 37.707032v343.996094h-18.539063c-6.945312 0-12.570312 5.632812-12.570312 12.570312v63.320312c0 20.789063 16.914062 37.703126 37.703125 37.703126h561.824219c20.789062 0 37.703125-16.914063 37.703125-37.703126v-63.320312c0-6.9375-5.628907-12.570312-12.566407-12.570312h-13.964843v-238.757813c16.757812-3.832031 29.300781-18.847656 29.300781-36.75zm-27.90625 351.398437c0 6.933594-5.640625 12.566407-12.566406 12.566407h-561.824219c-6.925781 0-12.566406-5.632813-12.566406-12.566407v-50.753906h586.957031zm-269.398438-313.691406h29.105469l40.171875 41.742188c2.371094 2.464844 5.644532 3.851562 9.058594 3.851562.105469 0 .214844 0 .328125-.003906 3.527344-.085938 6.851563-1.660156 9.167969-4.324219l35.785156-41.269531h66.183594v182.910156h-185.71875c-2.007813-9.273437-6.976563-24.976562-16.304688-39.566406-9.910156-15.503906-22.316406-26.050781-36.53125-31.285156 4.296875-8.4375 6.730469-17.96875 6.730469-28.066406v-53.125c0-19.59375-15.9375-35.53125-35.523437-35.53125h-86.460938c-3.722656 0-7.25 1.644531-9.640625 4.496093-2.386719 2.851563-3.386719 6.617188-2.738281 10.277344 1.546875 8.652344 5.019531 16.949219 10.230468 24.609375v49.273438c0 10.097656 2.4375 19.625 6.726563 28.058593-30.351563 11.449219-44.707031 46.296875-49.132813 70.859375h-19.5625v-246.597656h190.421876v25.984375c0 20.792969 16.914062 37.707031 37.703124 37.707031zm-141.019531 83.992188v-25.574219c5.230469 3.277344 10.816407 6.09375 16.589844 8.300781 10.167969 3.890625 20.828125 5.964844 30.753906 5.859375l26.519531.199219v11.214844c0 20.363281-16.570312 36.929687-36.9375 36.929687-20.359374 0-36.925781-16.566406-36.925781-36.929687zm73.863281-36.355469-26.417968-.199219c-.027344 0-.0625 0-.09375 0-.027344 0-.0625 0-.089844 0-6.910156.019532-14.382812-1.402344-21.691406-4.199218-7.386719-2.824219-14.355469-6.941407-20.152344-11.894532-3.1875-2.726562-6.8125-6.378906-9.851562-10.875h67.898437c5.734375 0 10.398437 4.664063 10.398437 10.394532zm-74.269531 85.898437c10.394531 7.855469 23.332031 12.523438 37.332031 12.523438 13.992188 0 26.910157-4.65625 37.304688-12.496094 13.042969 1.230469 24.265625 9.042969 33.386719 23.316406 5.933593 9.273438 9.574219 19.09375 11.566406 26.027344h-161c3.585937-15.273437 14.25-46.832031 41.410156-49.371094zm-145.023437-239.730468c0-6.933594 5.636718-12.570313 12.566406-12.570313h236.179688v29.9375h-202.992188c-6.9375 0-12.566406 5.625-12.566406 12.566407v271.734374c0 6.945313 5.628906 12.574219 12.566406 12.574219h443.0625c6.9375 0 12.570312-5.628906 12.570312-12.574219v-195.472656h27.921876v236.25h-529.308594zm0 0" fill="#7231ad" data-original="#000000" style="" class=""/><path xmlns="http://www.w3.org/2000/svg" d="m363.234375 102.699219c0 18.023437 14.660156 32.683593 32.679687 32.683593 18.015626 0 32.675782-14.660156 32.675782-32.683593 0-18.015625-14.660156-32.675781-32.675782-32.675781-18.019531 0-32.679687 14.660156-32.679687 32.675781zm40.21875 0c0 4.160156-3.378906 7.546875-7.539063 7.546875-4.160156 0-7.546874-3.386719-7.546874-7.546875 0-4.152344 3.386718-7.539063 7.546874-7.539063 4.160157 0 7.539063 3.386719 7.539063 7.539063zm0 0" fill="#7231ad" data-original="#000000" style="" class=""/><path xmlns="http://www.w3.org/2000/svg" d="m472.496094 70.023438c-18.019532 0-32.683594 14.660156-32.683594 32.675781 0 18.023437 14.664062 32.683593 32.683594 32.683593 18.015625 0 32.675781-14.660156 32.675781-32.683593 0-18.015625-14.660156-32.675781-32.675781-32.675781zm0 40.222656c-4.160156 0-7.542969-3.386719-7.542969-7.546875 0-4.152344 3.382813-7.539063 7.542969-7.539063s7.539062 3.386719 7.539062 7.539063c0 4.160156-3.378906 7.546875-7.539062 7.546875zm0 0" fill="#7231ad" data-original="#000000" style="" class=""/><path xmlns="http://www.w3.org/2000/svg" d="m549.078125 135.382812c18.015625 0 32.675781-14.660156 32.675781-32.683593 0-18.015625-14.660156-32.675781-32.675781-32.675781-18.019531 0-32.679687 14.660156-32.679687 32.675781 0 18.023437 14.660156 32.683593 32.679687 32.683593zm0-40.222656c4.160156 0 7.539063 3.386719 7.539063 7.539063 0 4.160156-3.378907 7.546875-7.539063 7.546875s-7.546875-3.386719-7.546875-7.546875c0-4.152344 3.386719-7.539063 7.546875-7.539063zm0 0" fill="#7231ad" data-original="#000000" style="" class=""/><path xmlns="http://www.w3.org/2000/svg" d="m456.660156 374.183594h40.640625c6.9375 0 12.566407-5.625 12.566407-12.566406v-45.25c0-6.9375-5.628907-12.566407-12.566407-12.566407-6.945312 0-12.570312 5.628907-12.570312 12.566407v32.679687h-28.070313c-6.941406 0-12.566406 5.625-12.566406 12.570313 0 6.941406 5.628906 12.566406 12.566406 12.566406zm0 0" fill="#7231ad" data-original="#000000" style="" class=""/><path xmlns="http://www.w3.org/2000/svg" d="m403.171875 373.613281.234375.074219c1.210938.359375 2.433594.535156 3.632812.535156 5.402344 0 10.390626-3.503906 12.027344-8.9375 2.007813-6.652344-1.757812-13.664062-8.402344-15.664062l-.230468-.070313c-6.644532-2-13.65625 1.753907-15.664063 8.402344-2 6.648437 1.757813 13.660156 8.402344 15.660156zm0 0" fill="#7231ad" data-original="#000000" style="" class=""/><path xmlns="http://www.w3.org/2000/svg" d="m59.71875 522.519531.226562.070313c1.207032.359375 2.417969.53125 3.609376.53125 5.410156 0 10.40625-3.519532 12.035156-8.976563 1.988281-6.648437-1.792969-13.652343-8.441406-15.636719l-.234376-.070312c-6.65625-1.988281-13.652343 1.792969-15.640624 8.441406-1.984376 6.652344 1.792968 13.652344 8.445312 15.640625zm0 0" fill="#7231ad" data-original="#000000" style="" class=""/><path xmlns="http://www.w3.org/2000/svg" d="m91.046875 522.519531.234375.070313c1.199219.359375 2.414062.53125 3.609375.53125 5.40625 0 10.402344-3.519532 12.039063-8.964844 1.992187-6.644531-1.78125-13.652344-8.433594-15.644531l-.234375-.074219c-6.644531-1.992188-13.652344 1.78125-15.644531 8.433594-1.992188 6.648437 1.78125 13.65625 8.429687 15.648437zm0 0" fill="#7231ad" data-original="#000000" style="" class=""/><path xmlns="http://www.w3.org/2000/svg" d="m122.390625 522.519531.234375.070313c1.203125.359375 2.414062.53125 3.605469.53125 5.410156 0 10.410156-3.519532 12.035156-8.976563 1.992187-6.648437-1.785156-13.652343-8.441406-15.636719l-.230469-.070312c-6.65625-1.988281-13.652344 1.792969-15.644531 8.441406-1.988281 6.652344 1.792969 13.652344 8.441406 15.640625zm0 0" fill="#7231ad" data-original="#000000" style="" class=""/><path xmlns="http://www.w3.org/2000/svg" d="m514.289062 522.519531.226563.070313c1.207031.359375 2.421875.53125 3.613281.53125 5.410156 0 10.40625-3.519532 12.035156-8.964844 1.992188-6.644531-1.78125-13.652344-8.429687-15.644531l-.230469-.074219c-6.644531-1.992188-13.65625 1.78125-15.648437 8.433594-1.992188 6.648437 1.78125 13.65625 8.433593 15.648437zm0 0" fill="#7231ad" data-original="#000000" style="" class=""/><path xmlns="http://www.w3.org/2000/svg" d="m545.632812 522.519531.234376.070313c1.203124.359375 2.414062.53125 3.605468.53125 5.410156 0 10.410156-3.519532 12.035156-8.976563 1.988282-6.648437-1.789062-13.652343-8.441406-15.636719l-.230468-.070312c-6.65625-1.988281-13.65625 1.792969-15.644532 8.441406-1.988281 6.652344 1.792969 13.652344 8.441406 15.640625zm0 0" fill="#7231ad" data-original="#000000" style="" class=""/><path xmlns="http://www.w3.org/2000/svg" d="m576.96875 522.519531.226562.070313c1.207032.359375 2.417969.53125 3.617188.53125 5.40625 0 10.402344-3.519532 12.035156-8.964844 1.992188-6.644531-1.785156-13.652344-8.433594-15.644531l-.230468-.074219c-6.648438-1.992188-13.65625 1.78125-15.648438 8.433594-1.992187 6.648437 1.78125 13.65625 8.433594 15.648437zm0 0" fill="#7231ad" data-original="#000000" style="" class=""/><path xmlns="http://www.w3.org/2000/svg" d="m532.140625 22.53125.234375.066406c1.199219.363282 2.410156.53125 3.601562.53125 5.410157 0 10.40625-3.523437 12.035157-8.972656 1.988281-6.652344-1.792969-13.652344-8.441407-15.640625l-.234374-.066406c-6.648438-1.992188-13.652344 1.789062-15.640626 8.441406-1.984374 6.648437 1.792969 13.652344 8.445313 15.640625zm0 0" fill="#7231ad" data-original="#000000" style="" class=""/></g></svg>
