<?xml version="1.0"?>
<svg xmlns="http://www.w3.org/2000/svg" xmlns:xlink="http://www.w3.org/1999/xlink"  version="1.1" width="512" height="512" x="0" y="0" viewBox="0 0 512 512" style="enable-background:new 0 0 512 512" xml:space="preserve"><g><linearGradient xmlns="http://www.w3.org/2000/svg" id="SVGID_1_" gradientUnits="userSpaceOnUse" x1="256" x2="256" y1="511.797" y2=".204"><stop stop-opacity="1" stop-color="#5558ff" offset="0"/><stop stop-opacity="1" stop-color="#aaaaaa" offset="0"/></linearGradient><g xmlns="http://www.w3.org/2000/svg"><g><g><path d="m376 361.797c-23.455 0-45.604 11.306-59.689 30h-120.622c-14.085-18.694-36.235-30-59.689-30-41.355 0-75 33.645-75 75s33.645 75 75 75c23.455 0 45.604-11.306 59.689-30h120.621c14.085 18.694 36.235 30 59.689 30 41.355 0 75-33.645 75-75s-33.644-75-74.999-75zm0 90h42.42c-6.192 17.459-22.865 30-42.42 30-16.025 0-30.498-8.428-38.713-22.545-2.686-4.616-7.624-7.455-12.964-7.455h-136.645c-5.34 0-10.278 2.839-12.964 7.455-8.216 14.117-22.688 22.545-38.713 22.545-19.555 0-36.228-12.541-42.42-30h42.419c8.284 0 15-6.716 15-15s-6.716-15-15-15h-42.42c6.192-17.459 22.865-30 42.42-30 16.025 0 30.498 8.428 38.713 22.545 2.687 4.616 7.624 7.455 12.964 7.455h136.645c5.34 0 10.278-2.839 12.964-7.455 8.216-14.117 22.688-22.545 38.713-22.545 19.555 0 36.228 12.541 42.42 30h-42.419c-8.284 0-15 6.716-15 15s6.716 15 15 15zm12.298-366.811c-5.917 0-11.81.424-17.628 1.266-21.19-51.28-71.688-86.049-127.187-86.049-67.193 0-124.094 49.252-135.523 114.6-59.268.448-107.96 48.716-107.96 107.793 0 59.473 49.254 107.794 108.796 107.794h279.502c67.68 0 123.702-54.922 123.702-122.702 0-67.689-55.924-122.702-123.702-122.702zm0 215.404h-279.502c-43.448 0-78.796-34.899-78.796-77.794 0-42.897 35.348-77.796 78.796-77.796 3.443 0 6.923.234 10.344.696 4.12.557 8.283-.621 11.5-3.251s5.2-6.477 5.474-10.623c3.764-56.87 50.926-101.418 107.37-101.418 46.922 0 89.306 31.927 103.069 77.64 2.33 7.74 10.375 12.241 18.19 10.179 7.636-2.015 15.561-3.036 23.555-3.036 51.667 0 93.702 41.586 93.702 92.702s-42.034 92.701-93.702 92.701z" fill="url(#SVGID_1_)" data-original="url(#SVGID_1_)" style=""/></g></g></g></g></svg>
