<?xml version="1.0"?>
<svg xmlns="http://www.w3.org/2000/svg" xmlns:xlink="http://www.w3.org/1999/xlink"  version="1.1" width="512" height="512" x="0" y="0" viewBox="0 0 512.001 512.001" style="enable-background:new 0 0 512 512" xml:space="preserve"><g><g xmlns="http://www.w3.org/2000/svg"><path d="m256.001.001c-143.551 0-256 112.449-256 256s112.449 256 256 256 256-112.449 256-256-112.449-256-256-256zm0 472c-121.122 0-216-94.878-216-216s94.878-216 216-216 216 94.878 216 216-94.879 216-216 216z" fill="#aeacac" data-original="#000000" style=""/><path d="m276.001 117.411v-17.41c0-11.046-8.954-20-20-20s-20 8.954-20 20v17.41c-61.021 8.643-109.846 56.854-118.59 118.59h-17.41c-11.046 0-20 8.954-20 20s8.954 20 20 20h17.411c8.642 61.011 56.846 109.844 118.589 118.589v17.411c0 11.046 8.954 20 20 20s20-8.954 20-20v-17.411c61.011-8.642 109.844-56.846 118.589-118.589h17.411c11.046 0 20-8.954 20-20s-8.954-20-20-20h-17.41c-8.643-61.021-56.855-109.846-118.59-118.59zm-20 238.59c-55.14 0-100-44.86-100-100s44.86-100 100-100 100 44.86 100 100-44.86 100-100 100z" fill="#aeacac" data-original="#000000" style=""/><path d="m505.23 448.441c-8.285-7.307-20.923-6.515-28.229 1.77-8.331 9.445-17.345 18.459-26.79 26.79-8.284 7.307-9.076 19.945-1.77 28.229 7.284 8.258 19.92 9.098 28.229 1.77 10.693-9.432 20.898-19.637 30.33-30.33 7.306-8.284 6.514-20.922-1.77-28.229z" fill="#aeacac" data-original="#000000" style=""/><path d="m61.791 477.002c-9.446-8.332-18.46-17.346-26.791-26.791-7.307-8.284-19.945-9.076-28.229-1.769-8.284 7.307-9.076 19.945-1.769 28.229 9.432 10.693 19.636 20.897 30.329 30.329 8.302 7.322 20.937 6.497 28.229-1.769 7.306-8.284 6.514-20.923-1.769-28.229z" fill="#aeacac" data-original="#000000" style=""/><path d="m476.67 5.001c-8.285-7.307-20.923-6.515-28.229 1.77-7.306 8.284-6.514 20.922 1.77 28.229 9.445 8.331 18.459 17.345 26.79 26.79 7.284 8.258 19.92 9.098 28.229 1.77 8.284-7.307 9.076-19.945 1.77-28.229-9.432-10.693-19.637-20.898-30.33-30.33z" fill="#aeacac" data-original="#000000" style=""/><path d="m35.331 5.002c-10.693 9.431-20.897 19.635-30.329 30.329-7.307 8.284-6.515 20.922 1.769 28.229 8.336 7.353 20.969 6.462 28.229-1.769 8.331-9.446 17.345-18.46 26.791-26.791 8.284-7.307 9.076-19.945 1.769-28.229-7.307-8.284-19.946-9.076-28.229-1.769z" fill="#aeacac" data-original="#000000" style=""/></g></g></svg>
